<svg width="511" height="138" viewBox="0 0 511 138" fill="none" xmlns="http://www.w3.org/2000/svg">
<path d="M70.264 129.105C62.577 130.454 54.7549 130.858 46.6632 131.935L21.9825 59.7015V135.035C14.2955 135.844 7.28275 136.922 0 138V0H20.4999L48.551 78.3V0H70.264V129.105ZM112.746 50.5371C121.108 50.5371 133.92 50.1327 141.607 50.1327V71.6948C132.032 71.6948 120.839 71.6948 112.746 72.0992V104.174C125.424 103.366 138.101 102.287 150.913 101.882V122.635L91.1676 127.353V0H150.913V21.5625H112.746V50.5371ZM231.157 21.563H208.769V120.75C201.487 120.75 194.204 120.75 187.192 121.019V21.563H164.805V0H231.158L231.157 21.563ZM266.221 49.0551V94.2018H295.757V119.538H266.221H245.046V0L295.757 0V21.5625H266.221V49.0551ZM340.396 100.67C352.669 100.939 365.076 101.884 377.08 102.556V123.85C357.794 122.636 338.509 121.425 318.819 121.019V0H340.396V100.67ZM395.286 125.332C402.164 125.737 409.447 126.141 416.46 126.949V0H395.286V125.332ZM511 0L483.622 65.6311L511 138C502.907 136.922 494.816 135.439 486.724 134.092L471.215 94.2018L455.437 130.858C447.614 129.509 440.061 129.105 432.241 128.027L460.022 64.8217L434.937 0H458.132L472.293 36.252L487.399 0L511 0Z" fill="#E50914"/>
</svg>
